# xmcd CD database file
#
# Track frame offsets:
#	182
#	16960
#	32102
#	47022
#	67957
#	86802
#	105172
#	122370
#	139000
#	156777
#	175080
#
# Disc length: 2573 seconds
#
# Revision: 11
# Processed by: cddbd v1.5.2PL0 Copyright (c) Steve Scherf et al.
# Submitted via: CDex 1.51
#
DISCID=7f0a0b0b
DTITLE=Jo Dee Messina - Burn
DYEAR=2000
DGENRE=Country
TTITLE0=Jo DeeMarieMessina,Holliston,MA - Downtime
TTITLE1=Jo DeeMarieMessina,Holliston,MA - That's The Way
TTITLE2=Jo DeeMarieMessina,Holliston,MA - Dare To Dream
TTITLE3=Jo DeeMarieMessina,Holliston,MA - Burn
TTITLE4=Jo DeeMarieMessina,Holliston,MA - If Not You
TTITLE5=Jo DeeMarieMessina,Holliston,MA - Closer
TTITLE6=Jo DeeMarieMessina,Holliston,MA - These Are The Days
TTITLE7=Jo DeeMarieMessina,Holliston,MA - Saturday Night
TTITLE8=Jo DeeMarieMessina,Holliston,MA - Angelene
TTITLE9=Jo DeeMarieMessina,Holliston,MA - Nothing I Can Do
TTITLE10=Jo DeeMarieMessina,Holliston,MA,withTimMcGraw - Bring On The Rain 
EXTD=YEAR: 2000
EXTT0=
EXTT1=
EXTT2=
EXTT3=
EXTT4=
EXTT5=
EXTT6=
EXTT7=
EXTT8=
EXTT9=
EXTT10=
PLAYORDER=
